<svg width="744" height="247" viewBox="0 0 744 247" fill="none" xmlns="http://www.w3.org/2000/svg">
<path d="M104.27 126.22V151.85L100.9 149.91L88.8 142.92L85.44 140.98L82.07 139.03L78.71 137.09L66.6 130.1L63.23 128.16L59.87 126.21L56.51 124.28L44.4 117.28L41.04 115.34L37.67 113.4L34.31 111.46L22.2 104.47V130.1L34.31 137.09L37.67 139.03L41.03 140.98L44.4 142.92L56.5 149.91L59.87 151.85L63.23 153.79L66.6 155.74L78.7 162.72L82.07 164.67L85.43 166.61L88.8 168.55L100.9 175.54L104.27 177.48V246.61L92.16 239.62L88.8 237.68L85.43 235.74L82.07 233.79L69.97 226.81L66.6 224.86L63.23 222.92L59.87 220.97L47.77 213.99L44.4 212.04L41.04 210.1L37.67 208.16L25.56 201.17L22.2 199.23L18.83 197.29L15.47 195.34L3.37 188.35L0 186.41V160.78L3.37 162.72L15.47 169.71L18.84 171.65L22.2 173.6L25.56 175.54L37.67 182.53L41.03 184.47L44.4 186.41L47.76 188.35L59.87 195.34L63.24 197.29L66.6 199.23L69.97 201.17L82.07 208.16V190.3L78.71 188.35L66.6 181.37L63.23 179.42L59.87 177.48L56.5 175.54L44.4 168.55L41.03 166.6L37.67 164.67L34.31 162.72L22.2 155.74L18.84 153.79L15.47 151.85L12.11 149.91L0 142.92V66.02L12.11 73.01L15.47 74.95L18.84 76.9L22.2 78.84L34.31 85.83L37.67 87.77L41.03 89.71L44.4 91.66L56.5 98.64L59.87 100.59L63.23 102.53H63.24L66.6 104.47L78.7 111.46H78.71L82.07 113.4L85.43 115.34L88.8 117.29L100.9 124.28L104.27 126.22Z" fill="white"/>
<path d="M211.89 60.2L199.78 67.19L196.42 69.13L193.05 71.07L189.69 73.01L177.59 66.02L174.22 64.08L170.86 62.14L167.49 60.2L155.39 53.2L152.03 51.27L148.66 49.32L145.3 47.38L133.19 40.39L129.83 38.45L126.46 36.51L123.1 34.56L111 27.58L107.63 25.63L104.27 27.58L92.1601 34.56L88.8001 36.51L85.4301 38.45L88.8001 40.39L100.9 47.38L104.27 49.32L107.63 51.27L111 53.21L123.1 60.2L126.46 62.14L129.83 64.08L133.19 66.02L145.3 73.01L148.66 74.95L152.02 76.89H152.03L155.39 78.84L167.49 85.83L155.39 92.82L152.03 94.76L148.66 96.7L145.3 98.64L133.19 105.63L129.83 107.57L126.46 109.52L123.1 111.46L111 118.45L107.63 120.39L104.27 118.45L92.1601 111.46L88.8001 109.52L85.4301 107.57L82.0701 105.64L69.9601 98.64L66.6001 96.7L63.2301 94.76L59.8701 92.82L47.7601 85.83L44.4001 83.89L41.0301 81.95L37.6701 80L25.5601 73.02L22.2001 71.07L18.8301 69.13L15.4701 67.19L3.37012 60.2L15.4701 53.21L18.8401 51.27L22.2001 49.32L25.5701 47.38L37.6701 54.36L41.0401 56.31L44.4001 58.25L47.7701 60.2L59.8701 67.18L63.2401 69.13L66.6001 71.07L69.9701 73.01L82.0701 80L85.4301 81.94L88.8001 83.89L92.1601 85.83L104.27 92.82L107.63 94.76L111 92.82L123.1 85.83L111 78.84L107.63 76.89L104.27 74.95L100.9 73.01L88.8001 66.02L85.4301 64.08L82.0701 62.14L78.7101 60.2L66.6001 53.2L63.2401 51.27L59.8701 49.32L56.5101 47.38L44.4001 40.39L41.0401 38.45L44.4001 36.51L47.7701 34.56L59.8701 27.58L63.2301 25.63L66.6001 23.69L69.9701 21.75L82.0701 14.76L85.4301 12.81L88.8001 10.88L92.1601 8.93L104.27 1.94L107.63 0L111 1.94L123.1 8.93L126.46 10.88L129.83 12.82L133.19 14.76L145.3 21.75L148.66 23.69L152.03 25.63L155.39 27.58L167.49 34.56L170.86 36.51L174.22 38.45L177.59 40.39L189.69 47.38L193.05 49.32L196.42 51.27L199.78 53.21L211.89 60.2Z" fill="white"/>
<path d="M215.25 66.03V91.66L203.15 98.64L199.78 100.59L196.42 102.53L193.05 104.47L180.95 111.46L177.59 113.4V208.16L174.22 210.1L170.86 212.04L167.49 213.99L155.39 220.97V126.22L152.03 128.16L148.66 130.1L136.56 137.09L133.19 139.03L129.83 140.98L126.46 142.92L114.36 149.91L111 151.85V126.22L114.36 124.28L126.46 117.29L129.83 115.34L133.19 113.4L136.56 111.46L148.66 104.47L152.03 102.53L155.39 100.59L158.75 98.64L170.86 91.66L174.22 89.71L177.59 87.77L180.95 85.83L193.05 78.84L196.42 76.9L199.78 74.96L203.15 73.02L215.25 66.03Z" fill="white"/>
<path d="M283.98 76.9C279.18 75.91 275.21 74.06 272.06 71.36C268.92 68.66 267.34 64.96 267.34 60.27C267.34 56.68 268.48 53.6 270.77 51C273.06 48.41 275.83 46.53 279.09 45.37C282.34 44.21 285.74 43.63 289.27 43.63C295.12 43.63 300.11 45.05 304.25 47.89C308.39 50.73 311.01 55.02 312.11 60.76H303.01C302.13 57.51 300.37 55.15 297.76 53.68C295.14 52.22 292.17 51.49 288.86 51.49C286.05 51.49 283.36 52.18 280.79 53.56C278.22 54.94 276.94 57.04 276.94 59.85C276.94 64.32 279.97 67.19 286.04 68.46L293.16 69.95C295.97 70.56 298.4 71.22 300.44 71.94C302.48 72.66 304.56 73.66 306.69 74.96C308.81 76.26 310.44 77.98 311.57 80.13C312.7 82.28 313.27 84.79 313.27 87.66C313.27 93.29 310.99 97.71 306.44 100.94C301.89 104.17 296.47 105.78 290.18 105.78C283.23 105.78 277.56 103.97 273.17 100.36C268.78 96.75 266.23 91.8 265.52 85.51H274.79C276.55 93.78 281.8 97.92 290.51 97.92C294.43 97.92 297.61 97.05 300.07 95.31C302.52 93.57 303.75 91.27 303.75 88.4C303.75 83.43 299.61 80.1 291.34 78.39L283.98 76.9Z" fill="white"/>
<path d="M357.8 75.25H349.19C348.75 72.71 347.49 70.66 345.42 69.08C343.35 67.51 340.91 66.72 338.1 66.72C334.73 66.72 331.91 68.06 329.62 70.73C327.33 73.41 326.19 77.31 326.19 82.44C326.19 87.57 327.35 91.58 329.67 94.31C331.99 97.04 334.8 98.41 338.11 98.41C340.92 98.41 343.39 97.64 345.52 96.09C347.64 94.55 348.98 92.48 349.53 89.88H358.22C357.34 94.51 354.98 98.32 351.14 101.3C347.31 104.28 342.91 105.77 337.94 105.77C331.6 105.77 326.52 103.59 322.71 99.23C318.9 94.87 317 89.3 317 82.51C317 75.72 318.97 70.24 322.92 65.88C326.86 61.52 332.06 59.34 338.52 59.34C343.49 59.34 347.77 60.87 351.39 63.93C355 66.99 357.14 70.76 357.8 75.23V75.25Z" fill="white"/>
<path d="M361.33 92.71C361.33 90.95 361.66 89.36 362.32 87.95C362.98 86.54 363.99 85.32 365.34 84.27C366.69 83.22 368.19 82.31 369.85 81.54C371.51 80.77 373.53 80.11 375.93 79.55C378.33 79 380.72 78.54 383.09 78.18C385.46 77.82 388.22 77.48 391.36 77.15V76.24C391.36 69.23 388.16 65.73 381.76 65.73C378.78 65.73 376.46 66.46 374.81 67.92C373.16 69.38 372.24 71.49 372.08 74.25H363.39C363.78 69.62 365.69 65.93 369.14 63.2C372.59 60.47 376.9 59.1 382.09 59.1C394.23 59.1 400.21 65.39 400.05 77.97C400.05 78.25 400.02 79.91 399.97 82.98C399.91 86.04 399.89 87.93 399.89 88.65C399.89 95.38 400.3 100.73 401.13 104.7H392.86C392.47 102.66 392.22 100.7 392.12 98.82C389.36 103.45 384.4 105.77 377.22 105.77C372.59 105.77 368.78 104.58 365.8 102.21C362.82 99.84 361.33 96.67 361.33 92.69V92.71ZM391.78 83.52C384.33 84.24 378.95 85.23 375.64 86.5C372.33 87.77 370.67 89.78 370.67 92.54C370.67 94.58 371.43 96.2 372.95 97.38C374.47 98.57 376.52 99.16 379.12 99.16C382.93 99.16 385.99 98.14 388.31 96.1C390.63 94.06 391.79 90.94 391.79 86.75V83.52H391.78Z" fill="white"/>
<path d="M416.58 66.64C419.39 61.79 424.06 59.36 430.56 59.36C440.49 59.36 445.46 65.13 445.46 76.66V104.71H436.85V78.97C436.85 77.15 436.74 75.58 436.52 74.25C436.3 72.93 435.9 71.64 435.32 70.4C434.74 69.16 433.8 68.21 432.5 67.54C431.2 66.88 429.59 66.55 427.66 66.55C424.02 66.55 421.26 67.79 419.38 70.27C417.5 72.75 416.57 76.26 416.57 80.78V104.7H407.96V60.18H416.57V66.63L416.58 66.64Z" fill="white"/>
<path d="M469.17 76.9C464.37 75.91 460.4 74.06 457.25 71.36C454.1 68.66 452.53 64.96 452.53 60.27C452.53 56.68 453.67 53.6 455.96 51C458.25 48.41 461.02 46.53 464.28 45.37C467.53 44.21 470.93 43.63 474.46 43.63C480.31 43.63 485.3 45.05 489.44 47.89C493.58 50.73 496.2 55.02 497.3 60.76H488.2C487.32 57.51 485.57 55.15 482.95 53.68C480.33 52.22 477.36 51.49 474.05 51.49C471.24 51.49 468.55 52.18 465.98 53.56C463.41 54.94 462.13 57.04 462.13 59.85C462.13 64.32 465.16 67.19 471.23 68.46L478.35 69.95C481.16 70.56 483.59 71.22 485.63 71.94C487.67 72.66 489.75 73.66 491.88 74.96C494 76.26 495.63 77.98 496.76 80.13C497.89 82.28 498.46 84.79 498.46 87.66C498.46 93.29 496.18 97.71 491.63 100.94C487.08 104.17 481.66 105.78 475.37 105.78C468.42 105.78 462.75 103.97 458.36 100.36C453.97 96.75 451.42 91.8 450.71 85.51H459.98C461.74 93.78 466.99 97.92 475.7 97.92C479.62 97.92 482.8 97.05 485.26 95.31C487.71 93.57 488.94 91.27 488.94 88.4C488.94 83.43 484.8 80.1 476.53 78.39L469.17 76.9Z" fill="white"/>
<path d="M542.989 75.25H534.379C533.939 72.71 532.679 70.66 530.609 69.08C528.539 67.51 526.099 66.72 523.289 66.72C519.919 66.72 517.099 68.06 514.809 70.73C512.519 73.41 511.379 77.31 511.379 82.44C511.379 87.57 512.539 91.58 514.859 94.31C517.179 97.04 519.989 98.41 523.299 98.41C526.109 98.41 528.579 97.64 530.709 96.09C532.829 94.55 534.169 92.48 534.719 89.88H543.409C542.529 94.51 540.169 98.32 536.329 101.3C532.489 104.28 528.099 105.77 523.129 105.77C516.789 105.77 511.709 103.59 507.899 99.23C504.089 94.87 502.189 89.3 502.189 82.51C502.189 75.72 504.159 70.24 508.109 65.88C512.049 61.52 517.249 59.34 523.709 59.34C528.679 59.34 532.959 60.87 536.579 63.93C540.189 66.99 542.329 70.76 542.989 75.23V75.25Z" fill="white"/>
<path d="M546.52 92.71C546.52 90.95 546.85 89.36 547.51 87.95C548.17 86.54 549.18 85.32 550.53 84.27C551.88 83.22 553.39 82.31 555.04 81.54C556.69 80.77 558.72 80.11 561.12 79.55C563.52 79 565.91 78.54 568.28 78.18C570.65 77.82 573.41 77.48 576.56 77.15V76.24C576.56 69.23 573.36 65.73 566.96 65.73C563.98 65.73 561.66 66.46 560.01 67.92C558.35 69.38 557.44 71.49 557.28 74.25H548.59C548.98 69.62 550.89 65.93 554.34 63.2C557.79 60.47 562.11 59.1 567.29 59.1C579.43 59.1 585.41 65.39 585.25 77.97C585.25 78.25 585.22 79.91 585.17 82.98C585.11 86.04 585.09 87.93 585.09 88.65C585.09 95.38 585.5 100.73 586.33 104.7H578.05C577.66 102.66 577.42 100.7 577.31 98.82C574.55 103.45 569.59 105.77 562.41 105.77C557.78 105.77 553.97 104.58 550.99 102.21C548.01 99.84 546.52 96.67 546.52 92.69V92.71ZM576.97 83.52C569.52 84.24 564.14 85.23 560.83 86.5C557.52 87.77 555.86 89.78 555.86 92.54C555.86 94.58 556.62 96.2 558.14 97.38C559.66 98.57 561.71 99.16 564.3 99.16C568.11 99.16 571.17 98.14 573.49 96.1C575.81 94.06 576.97 90.94 576.97 86.75V83.52Z" fill="white"/>
<path d="M601.77 60.19V66.73C604.69 61.82 609.33 59.37 615.67 59.37C621.02 59.37 625.56 61.48 629.28 65.7C633 69.92 634.87 75.53 634.87 82.54C634.87 89.55 633.01 95.24 629.28 99.46C625.56 103.68 621.02 105.79 615.67 105.79C609.33 105.79 604.69 103.34 601.77 98.43V119.2H593.16V60.2H601.77V60.19ZM613.69 98.58C617.28 98.58 620.17 97.15 622.38 94.28C624.59 91.41 625.69 87.49 625.69 82.53C625.69 77.57 624.59 73.66 622.38 70.82C620.17 67.98 617.28 66.56 613.69 66.56C610.1 66.56 607.23 67.91 604.92 70.61C602.6 73.31 601.45 77.29 601.45 82.53C601.45 87.77 602.61 91.76 604.92 94.49C607.24 97.22 610.16 98.59 613.69 98.59V98.58Z" fill="white"/>
<path d="M671.72 91.63H680.41C679.31 95.66 677.03 99.02 673.58 101.73C670.13 104.43 665.73 105.79 660.38 105.79C653.43 105.79 647.99 103.57 644.08 99.13C640.16 94.69 638.2 89.1 638.2 82.37C638.2 75.64 640.26 69.99 644.37 65.74C648.48 61.49 653.73 59.37 660.13 59.37C666.86 59.37 672.13 61.81 675.94 66.69C679.75 71.57 681.43 77.71 680.99 85.1H647.06C647.45 89.18 648.84 92.42 651.24 94.82C653.64 97.22 656.58 98.42 660.05 98.42C665.9 98.42 669.79 96.16 671.72 91.63ZM647.23 78.31H672.06C671.95 74.89 670.79 72.05 668.58 69.79C666.37 67.53 663.53 66.4 660.06 66.4C652.61 66.4 648.34 70.37 647.23 78.32V78.31Z" fill="white"/>
<path d="M282.33 134.44H263.05V126.41H310.96V134.44H291.76V186.41H282.33V134.44Z" fill="white"/>
<path d="M337.5 173.34H346.19C345.09 177.37 342.81 180.73 339.36 183.44C335.91 186.14 331.51 187.49 326.16 187.49C319.21 187.49 313.77 185.27 309.86 180.83C305.94 176.39 303.98 170.8 303.98 164.07C303.98 157.34 306.03 151.69 310.15 147.44C314.26 143.19 319.51 141.07 325.91 141.07C332.64 141.07 337.91 143.51 341.72 148.39C345.53 153.27 347.21 159.41 346.77 166.8H312.84C313.23 170.88 314.62 174.12 317.02 176.52C319.42 178.92 322.36 180.12 325.83 180.12C331.68 180.12 335.57 177.86 337.5 173.33V173.34ZM313.01 160.01H337.84C337.73 156.59 336.57 153.75 334.36 151.49C332.15 149.23 329.31 148.1 325.84 148.1C318.39 148.1 314.12 152.07 313.01 160.02V160.01Z" fill="white"/>
<path d="M390.7 156.95H382.09C381.65 154.41 380.39 152.36 378.32 150.78C376.25 149.21 373.81 148.42 371 148.42C367.63 148.42 364.81 149.76 362.52 152.43C360.23 155.11 359.09 159.01 359.09 164.14C359.09 169.27 360.25 173.28 362.57 176.01C364.89 178.74 367.7 180.11 371.01 180.11C373.82 180.11 376.29 179.34 378.42 177.79C380.54 176.25 381.88 174.18 382.43 171.58H391.12C390.24 176.21 387.88 180.02 384.04 183C380.21 185.98 375.81 187.47 370.84 187.47C364.5 187.47 359.42 185.29 355.61 180.93C351.8 176.57 349.9 171 349.9 164.21C349.9 157.42 351.87 151.94 355.82 147.58C359.76 143.22 364.96 141.04 371.42 141.04C376.39 141.04 380.67 142.57 384.29 145.63C387.9 148.69 390.04 152.46 390.7 156.93V156.95Z" fill="white"/>
<path d="M405.01 148.34C407.82 143.49 412.49 141.06 418.99 141.06C428.92 141.06 433.89 146.83 433.89 158.36V186.41H425.28V160.67C425.28 158.85 425.17 157.28 424.95 155.95C424.73 154.63 424.33 153.34 423.75 152.1C423.17 150.86 422.23 149.91 420.93 149.25C419.63 148.59 418.02 148.26 416.09 148.26C412.45 148.26 409.69 149.5 407.81 151.98C405.93 154.46 405 157.97 405 162.49V186.41H396.39V126.41H405V148.34H405.01Z" fill="white"/>
<path d="M450.549 148.34C453.359 143.49 458.019 141.06 464.529 141.06C474.459 141.06 479.429 146.83 479.429 158.36V186.41H470.819V160.67C470.819 158.85 470.709 157.28 470.489 155.95C470.269 154.63 469.869 153.34 469.289 152.1C468.709 150.86 467.769 149.91 466.479 149.25C465.179 148.59 463.569 148.26 461.639 148.26C457.999 148.26 455.239 149.5 453.359 151.98C451.479 154.46 450.549 157.97 450.549 162.49V186.41H441.939V141.89H450.549V148.34Z" fill="white"/>
<path d="M528.18 164.32C528.18 171.82 526.03 177.56 521.72 181.53C517.42 185.5 512.34 187.49 506.49 187.49C502.79 187.49 499.36 186.7 496.19 185.13C493.02 183.56 490.34 180.97 488.16 177.35C485.98 173.74 484.89 169.39 484.89 164.32C484.89 159.25 485.98 154.82 488.16 151.2C490.34 147.58 493.01 144.99 496.19 143.42C499.36 141.85 502.8 141.06 506.49 141.06C510.18 141.06 513.63 141.85 516.83 143.42C520.03 144.99 522.72 147.59 524.9 151.2C527.08 154.81 528.17 159.19 528.17 164.32H528.18ZM497.6 176.15C500 178.85 502.96 180.2 506.5 180.2C510.04 180.2 513.01 178.83 515.44 176.1C517.87 173.37 519.08 169.44 519.08 164.31C519.08 159.18 517.87 155.1 515.44 152.39C513.01 149.69 510.03 148.34 506.5 148.34C502.97 148.34 500 149.68 497.6 152.35C495.2 155.02 494 159.01 494 164.31C494 169.61 495.2 173.44 497.6 176.14V176.15Z" fill="white"/>
<path d="M542.78 186.41H534.17V126.41H542.78V186.41Z" fill="white"/>
<path d="M592.189 164.32C592.189 171.82 590.039 177.56 585.729 181.53C581.429 185.5 576.349 187.49 570.499 187.49C566.799 187.49 563.369 186.7 560.199 185.13C557.029 183.56 554.349 180.97 552.169 177.35C549.989 173.74 548.899 169.39 548.899 164.32C548.899 159.25 549.989 154.82 552.169 151.2C554.349 147.58 557.019 144.99 560.199 143.42C563.369 141.85 566.809 141.06 570.499 141.06C574.189 141.06 577.639 141.85 580.839 143.42C584.039 144.99 586.729 147.59 588.909 151.2C591.089 154.81 592.179 159.19 592.179 164.32H592.189ZM561.609 176.15C564.009 178.85 566.969 180.2 570.509 180.2C574.049 180.2 577.019 178.83 579.449 176.1C581.879 173.37 583.089 169.44 583.089 164.31C583.089 159.18 581.879 155.1 579.449 152.39C577.019 149.69 574.039 148.34 570.509 148.34C566.979 148.34 564.009 149.68 561.609 152.35C559.209 155.02 558.009 159.01 558.009 164.31C558.009 169.61 559.209 173.44 561.609 176.14V176.15Z" fill="white"/>
<path d="M628.29 141.89H636.9V181.2C636.9 188.43 635.3 193.64 632.1 196.84C628.68 200.43 623.49 202.22 616.54 202.22C611.41 202.22 607.19 201.07 603.88 198.79C600.57 196.5 598.58 193.09 597.92 188.57H606.77C607.27 190.72 608.27 192.33 609.79 193.41C611.31 194.49 613.61 195.02 616.7 195.02C620.78 195.02 623.76 193.94 625.64 191.79C627.41 189.86 628.29 186.94 628.29 183.02V178.3C625.37 183.21 620.79 185.66 614.55 185.66C609.2 185.66 604.7 183.65 601.06 179.62C597.42 175.59 595.6 170.16 595.6 163.32C595.6 156.48 597.42 151.06 601.06 147.06C604.7 143.06 609.2 141.06 614.55 141.06C620.78 141.06 625.36 143.52 628.29 148.42V141.88V141.89ZM616.54 148.18C612.95 148.18 610.1 149.52 607.98 152.19C605.86 154.87 604.79 158.58 604.79 163.32C604.79 168.06 605.85 171.87 607.98 174.57C610.1 177.27 612.96 178.63 616.54 178.63C620.12 178.63 622.97 177.35 625.23 174.78C627.49 172.21 628.62 168.4 628.62 163.32C628.62 158.24 627.49 154.52 625.23 151.98C622.97 149.44 620.07 148.17 616.54 148.17V148.18Z" fill="white"/>
<path d="M653.94 126.41V135.93H645.33V126.41H653.94ZM653.94 141.89V186.41H645.33V141.89H653.94Z" fill="white"/>
<path d="M693.41 173.34H702.1C701 177.37 698.72 180.73 695.27 183.44C691.82 186.14 687.42 187.49 682.07 187.49C675.12 187.49 669.68 185.27 665.77 180.83C661.85 176.39 659.89 170.8 659.89 164.07C659.89 157.34 661.95 151.69 666.06 147.44C670.17 143.19 675.42 141.07 681.82 141.07C688.55 141.07 693.82 143.51 697.63 148.39C701.44 153.27 703.12 159.41 702.68 166.8H668.75C669.14 170.88 670.53 174.12 672.93 176.52C675.33 178.92 678.27 180.12 681.74 180.12C687.59 180.12 691.48 177.86 693.41 173.33V173.34ZM668.91 160.01H693.74C693.63 156.59 692.47 153.75 690.26 151.49C688.05 149.23 685.21 148.1 681.74 148.1C674.29 148.1 670.02 152.07 668.91 160.02V160.01Z" fill="white"/>
<path d="M733.87 154.3C732.71 150.05 729.35 147.93 723.77 147.93C721.45 147.93 719.41 148.4 717.65 149.34C715.88 150.28 715 151.6 715 153.31C715 154.91 715.5 156.12 716.49 156.95C717.48 157.78 719.06 158.41 721.21 158.85L727.58 160.09C732.55 161.08 736.42 162.55 739.21 164.48C742 166.41 743.39 169.36 743.39 173.33C743.39 177.69 741.61 181.14 738.05 183.67C734.49 186.21 730.04 187.48 724.69 187.48C719.34 187.48 714.8 186.09 711.41 183.3C708.02 180.51 706.04 176.94 705.49 172.58H714.26C715.47 177.93 719.03 180.61 724.94 180.61C727.81 180.61 730.17 180.05 732.02 178.91C733.87 177.78 734.79 176.25 734.79 174.32C734.79 170.96 731.95 168.72 726.27 167.62L719.57 166.3C710.91 164.59 706.58 160.37 706.58 153.64C706.58 149.83 708.32 146.77 711.79 144.45C715.27 142.13 719.54 140.97 724.62 140.97C729.2 140.97 733.1 142.14 736.33 144.49C739.56 146.84 741.58 150.1 742.41 154.3H733.89H733.87Z" fill="white"/>
</svg>
