<svg width="418" height="479" viewBox="0 0 418 479" fill="none" xmlns="http://www.w3.org/2000/svg">
<path d="M202.2 244.78V294.48L195.68 290.72L172.2 277.16L165.68 273.4L159.15 269.63L152.63 265.86L129.15 252.31L122.62 248.54L116.1 244.77L109.58 241.01L86.1 227.45L79.58 223.69L73.05 219.92L66.53 216.15L43.05 202.6V252.31L66.53 265.87L73.05 269.63L79.57 273.4L86.1 277.17L109.57 290.72L116.1 294.49L122.62 298.25L129.15 302.02L152.62 315.57L159.15 319.34L165.67 323.11L172.2 326.88L195.67 340.43L202.2 344.2V478.25L178.72 464.7L172.2 460.93L165.67 457.17L159.15 453.4L135.68 439.85L129.15 436.08L122.62 432.31L116.1 428.54L92.63 414.99L86.1 411.22L79.58 407.46L73.05 403.69L49.57 390.13L43.05 386.37L36.52 382.6L30 378.83L6.52 365.28L0 361.51V311.8L6.53 315.57L30 329.12L36.53 332.89L43.05 336.66L49.57 340.42L73.05 353.98L79.57 357.74L86.1 361.51L92.62 365.28L116.1 378.83L122.63 382.6L129.15 386.37L135.68 390.13L159.15 403.69V369.05L152.63 365.28L129.15 351.73L122.62 347.96L116.1 344.19L109.57 340.42L86.1 326.87L79.57 323.1L73.05 319.34L66.53 315.57L43.05 302.02L36.53 298.25L30 294.48L23.48 290.72L0 277.16V128.04L23.47 141.59H23.48L30 145.36L36.53 149.13L43.05 152.89L66.53 166.45L73.05 170.21L79.57 173.98L86.1 177.75L109.57 191.3L116.1 195.07L122.62 198.84H122.63L129.15 202.6L152.62 216.16H152.63L159.15 219.92L165.67 223.69L172.2 227.46L195.67 241.01L202.2 244.78Z" fill="#33313E"/>
<path d="M410.92 116.74L387.44 130.3L380.92 134.06L374.39 137.83L367.87 141.59L344.39 128.04L337.87 124.27L331.34 120.5L324.82 116.74L301.34 103.18L294.82 99.42L288.3 95.65L281.77 91.88L258.3 78.33L251.77 74.56L245.25 70.8L238.72 67.03L215.25 53.48L208.73 49.71L202.2 53.48L178.73 67.03L172.2 70.8L165.67 74.56L172.2 78.33L195.67 91.89L202.2 95.65L208.72 99.42L215.25 103.19L238.72 116.74L245.25 120.51L251.77 124.27L258.3 128.04L281.77 141.59L288.3 145.36L294.81 149.12H294.82L301.34 152.89L324.82 166.45L301.34 180L294.82 183.77L288.3 187.53L281.77 191.3L258.3 204.85L251.78 208.62L245.25 212.39L238.73 216.15H238.72L215.25 229.71L208.72 233.48L202.2 229.71L178.72 216.15L172.2 212.39L165.67 208.62L159.15 204.86L135.67 191.3L129.15 187.54L122.62 183.77L116.1 180L92.62 166.45L86.1 162.68L79.57 158.92L73.05 155.15L49.57 141.6L43.05 137.83L36.52 134.06L30 130.3L6.52002 116.74L30 103.19L36.53 99.42L43.05 95.65L49.58 91.88L73.05 105.43L79.58 109.2L86.1 112.97L92.63 116.74L116.1 130.29L122.63 134.06L129.15 137.82L135.68 141.59L159.15 155.14L165.67 158.91L172.2 162.68L178.73 166.45L202.2 180L208.73 183.77L215.25 180L238.72 166.45L215.25 152.89L208.73 149.12H208.72L202.2 145.36L195.67 141.59L172.2 128.04L165.67 124.27L159.15 120.5L152.63 116.74L129.15 103.18L122.63 99.42L116.1 95.65L109.58 91.88L86.1 78.33L79.58 74.56L86.1 70.8L92.63 67.03L116.1 53.48L122.62 49.71L129.15 45.94L135.68 42.17L159.15 28.62L165.67 24.85L172.2 21.09L178.72 17.32L202.2 3.77L208.72 0L215.25 3.77L238.72 17.32L245.25 21.09L251.77 24.86L258.3 28.63L281.77 42.18L288.3 45.95L294.82 49.71L301.34 53.48L324.81 67.03L331.34 70.8L337.87 74.56L344.39 78.33L367.86 91.89L374.39 95.65L380.91 99.42L387.44 103.19L410.92 116.74Z" fill="#33313E"/>
<path d="M417.44 128.05V177.75L393.97 191.3L387.44 195.07L380.92 198.84L374.39 202.6L350.92 216.16L344.39 219.92V403.69L337.87 407.46L331.34 411.22L324.81 414.99L301.34 428.54V244.78L294.82 248.54L288.3 252.31L264.82 265.86L258.3 269.63L251.77 273.4L245.25 277.16L221.77 290.72L215.25 294.48V244.78L221.77 241.01L245.25 227.46L251.78 223.69L258.3 219.92L264.82 216.15H264.83L288.3 202.6L294.82 198.83H294.83L301.34 195.07L307.87 191.3L331.34 177.75L337.87 173.98L344.39 170.22L350.92 166.45L374.39 152.9L380.92 149.13L387.44 145.37L393.97 141.6L417.44 128.05Z" fill="#33313E"/>
</svg>
